<?xml version="1.0" standalone="no"?>
<!DOCTYPE svg PUBLIC "-//W3C//DTD SVG 20010904//EN"
 "http://www.w3.org/TR/2001/REC-SVG-20010904/DTD/svg10.dtd">
<svg version="1.0" xmlns="http://www.w3.org/2000/svg"
 width="292.000000pt" height="292.000000pt" viewBox="0 0 292.000000 292.000000"
 preserveAspectRatio="xMidYMid meet">
<metadata>
Created by potrace 1.11, written by Peter Selinger 2001-2013
</metadata>
<g transform="translate(0.000000,292.000000) scale(0.100000,-0.100000)"
fill="#000000" stroke="none">
<path d="M1058 2164 c-2 -5 -3 -216 -3 -469 l0 -460 48 -3 47 -3 0 243 0 243
183 -183 183 -183 179 178 180 177 3 -352 2 -352 50 0 50 0 0 465 c0 256 -3
465 -8 465 -4 0 -106 -99 -227 -220 -121 -121 -224 -220 -230 -220 -5 0 -90
81 -187 179 l-178 178 0 48 c0 58 -16 70 196 -142 90 -90 167 -163 171 -163 5
0 106 98 226 218 147 147 216 223 212 233 -4 7 -19 24 -34 36 l-28 22 -189
-190 -189 -189 -226 226 c-125 124 -228 222 -231 218z"/>
<path d="M690 1069 c-166 -10 -370 -53 -530 -111 -75 -27 -166 -69 -116 -53
69 21 257 66 341 81 132 23 375 24 501 1 114 -21 300 -72 519 -142 277 -88
284 -90 510 -89 223 0 322 14 555 78 121 33 384 125 378 132 -2 2 -46 -10 -98
-27 -190 -60 -442 -99 -635 -99 -214 0 -401 33 -610 106 -309 109 -527 142
-815 123z"/>
</g>
</svg>
